<svg xmlns="http://www.w3.org/2000/svg" xmlns:xlink="http://www.w3.org/1999/xlink" width="40" zoomAndPan="magnify" viewBox="0 0 30 30.000001" height="40" preserveAspectRatio="xMidYMid meet" version="1.0"><defs><g/><clipPath id="299b8bc0c9"><path d="M 0.484375 0 L 29.515625 0 L 29.515625 29.03125 L 0.484375 29.03125 Z M 0.484375 0 " clip-rule="nonzero"/></clipPath></defs><g clip-path="url(#299b8bc0c9)"><path fill="#ffffff" d="M 0.484375 0 L 29.515625 0 L 29.515625 29.03125 L 0.484375 29.03125 Z M 0.484375 0 " fill-opacity="1" fill-rule="nonzero"/><path fill="#ffffff" d="M 0.484375 0 L 29.515625 0 L 29.515625 29.03125 L 0.484375 29.03125 Z M 0.484375 0 " fill-opacity="1" fill-rule="nonzero"/></g><g fill="#00685c" fill-opacity="1"><g transform="translate(0.56042, 20.685486)"><g><path d="M 11.546875 0 L 9.171875 0 L 7.59375 -4.125 C 7.445312 -4.507812 7.226562 -4.773438 6.9375 -4.921875 C 6.65625 -5.078125 6.28125 -5.15625 5.8125 -5.15625 L 3.5625 -5.15625 L 3.5625 0 L 1.34375 0 L 1.34375 -12.390625 L 6.65625 -12.390625 C 8.050781 -12.390625 9.113281 -12.082031 9.84375 -11.46875 C 10.582031 -10.851562 10.953125 -9.972656 10.953125 -8.828125 C 10.953125 -8.003906 10.734375 -7.300781 10.296875 -6.71875 C 9.859375 -6.144531 9.238281 -5.738281 8.4375 -5.5 C 9.164062 -5.351562 9.695312 -4.84375 10.03125 -3.96875 Z M 6.328125 -6.890625 C 7.179688 -6.890625 7.8125 -7.046875 8.21875 -7.359375 C 8.625 -7.671875 8.828125 -8.148438 8.828125 -8.796875 C 8.828125 -9.421875 8.625 -9.882812 8.21875 -10.1875 C 7.820312 -10.5 7.191406 -10.65625 6.328125 -10.65625 L 3.53125 -10.65625 L 3.53125 -6.890625 Z M 6.328125 -6.890625 "/></g></g></g><g fill="#00685c" fill-opacity="1"><g transform="translate(12.780872, 20.685486)"><g><path d="M -0.03125 1.265625 C 0.5625 1.347656 0.976562 1.390625 1.21875 1.390625 C 1.789062 1.390625 2.179688 1.25 2.390625 0.96875 C 2.597656 0.695312 2.703125 0.203125 2.703125 -0.515625 L 2.703125 -12.390625 L 4.9375 -12.390625 L 4.9375 -0.515625 C 4.9375 0.804688 4.6875 1.765625 4.1875 2.359375 C 3.695312 2.953125 2.847656 3.25 1.640625 3.25 C 1.078125 3.25 0.519531 3.203125 -0.03125 3.109375 Z M -0.03125 1.265625 "/></g></g></g><g fill="#00685c" fill-opacity="1"><g transform="translate(19.065185, 20.685486)"><g><path d="M 1.34375 0 L 1.34375 -12.390625 L 9.625 -12.390625 L 9.625 -10.625 L 3.53125 -10.625 L 3.53125 -7.1875 L 9.265625 -7.1875 L 9.265625 -5.40625 L 3.53125 -5.40625 L 3.53125 -1.78125 L 9.625 -1.78125 L 9.625 0 Z M 1.34375 0 "/></g></g></g></svg>